<svg xmlns="http://www.w3.org/2000/svg" width="60" height="60" fill="none" viewBox="0 0 60 60"><path fill="#918EF4" fill-rule="evenodd" d="M30 0C46.5685 0 60 13.4315 60 30V60H30C13.4315 60 0 46.5685 0 30C-3.8147e-06 13.4315 13.4315 0 30 0Z" clip-rule="evenodd"/><path fill="#fff" fill-rule="evenodd" d="M15.68 30.585V30.193C18.098 29.948 19.28 28.714 19.28 26.344V22.021C19.28 19.389 20.218 18.321 22.537 18.321H23.194V16H22.294C18.412 16 16.584 17.826 16.584 21.658V25.324C16.584 27.956 15.684 28.824 13 28.824V31.949C15.68 31.949 16.584 32.82 16.584 35.449V39.115C16.584 42.947 18.41 44.773 22.29 44.773H23.19V42.458H22.533C20.214 42.458 19.276 41.39 19.276 38.758V34.434C19.281 32.066 18.1 30.832 15.68 30.585ZM44 30.193V30.585C41.582 30.833 40.4 32.067 40.4 34.434V38.759C40.4 41.391 39.462 42.459 37.143 42.459H36.486V44.778H37.386C41.266 44.778 43.092 42.952 43.092 39.12V35.453C43.092 32.821 43.992 31.953 46.676 31.953V28.826C43.996 28.826 43.092 27.955 43.092 25.326V21.658C43.093 17.826 41.264 16 37.387 16H36.487V18.319H37.144C39.463 18.319 40.401 19.387 40.401 22.019V26.344C40.401 28.711 41.584 29.944 44.001 30.193H44Z" clip-rule="evenodd"/><path fill="#fff" fill-rule="evenodd" d="M30.5 27C32.433 27 34 28.567 34 30.5V34H30.5C28.567 34 27 32.433 27 30.5C27 28.567 28.567 27 30.5 27Z" clip-rule="evenodd"/></svg>